<svg xmlns="http://www.w3.org/2000/svg" width="1000" height="560" viewBox="0 0 1000 560">
<rect width="100%" height="100%" fill="#F5F1EB"/>
<style>text{font-family:-apple-system,BlinkMacSystemFont,Segoe UI,sans-serif;fill:#521000} .muted{fill:rgba(82,16,0,.68)} .axis{stroke:#EBD5C1;stroke-width:1} .grid{stroke:#EBD5C1;stroke-width:1;stroke-dasharray:4 6} .label{font-size:15px;font-weight:650}.small{font-size:12px}.title{font-size:26px;font-weight:800;letter-spacing:-.03em}</style>
<text class="title" x="40" y="40">Example quality: new syntax coverage vs existing catalog</text>
<text class="muted small" x="40" y="62">Heuristic score from scripts/score_examples.py; higher is better. Dots are individual examples.</text>
<line class="grid" x1="272.7" y1="110" x2="272.7" y2="390"/>
<text class="muted small" x="260.7" y="420">8.5</text>
<line class="grid" x1="529.3" y1="110" x2="529.3" y2="390"/>
<text class="muted small" x="517.3" y="420">9.0</text>
<line class="grid" x1="786.0" y1="110" x2="786.0" y2="390"/>
<text class="muted small" x="774.0" y="420">9.5</text>
<line class="axis" x1="170" y1="400" x2="940" y2="400"/>
<line x1="272.7" y1="105" x2="272.7" y2="405" stroke="#ff4801" stroke-width="2" opacity=".35"/>
<text class="small" x="278.7" y="115" fill="#ff4801">8.5 gate</text>
<text class="label" x="40" y="195">Existing examples</text>
<text class="muted small" x="40" y="215">n=52 avg=9.36 median=9.46 min=8.42</text>
<line x1="231.6" y1="190" x2="888.7" y2="190" stroke="#7c8a99" stroke-width="6" opacity=".18" stroke-linecap="round"/>
<line x1="714.7" y1="156" x2="714.7" y2="224" stroke="#7c8a99" stroke-width="3"/>
<text class="small" x="720.7" y="152" fill="#7c8a99">avg 9.36</text>
<text class="label" x="40" y="345">New syntax/graph examples</text>
<text class="muted small" x="40" y="365">n=17 avg=9.29 median=9.34 min=8.56</text>
<line x1="303.5" y1="340" x2="878.4" y2="340" stroke="#ff4801" stroke-width="6" opacity=".18" stroke-linecap="round"/>
<line x1="676.4" y1="306" x2="676.4" y2="374" stroke="#ff4801" stroke-width="3"/>
<text class="small" x="682.4" y="302" fill="#ff4801">avg 9.29</text>
<circle cx="231.6" cy="184.6" r="4" fill="#7c8a99" opacity=".82"><title>async-await 8.42</title></circle>
<circle cx="241.9" cy="182.8" r="4" fill="#7c8a99" opacity=".82"><title>classes 8.44</title></circle>
<circle cx="282.9" cy="190.9" r="4" fill="#7c8a99" opacity=".82"><title>special-methods 8.52</title></circle>
<circle cx="303.5" cy="193.6" r="4" fill="#7c8a99" opacity=".82"><title>exceptions 8.56</title></circle>
<circle cx="349.7" cy="173.8" r="4" fill="#7c8a99" opacity=".82"><title>recursion 8.65</title></circle>
<circle cx="411.3" cy="190.0" r="4" fill="#7c8a99" opacity=".82"><title>type-hints 8.77</title></circle>
<circle cx="447.2" cy="195.4" r="4" fill="#7c8a99" opacity=".82"><title>match-statements 8.84</title></circle>
<circle cx="447.2" cy="192.7" r="4" fill="#7c8a99" opacity=".82"><title>modules 8.84</title></circle>
<circle cx="590.9" cy="191.8" r="4" fill="#7c8a99" opacity=".82"><title>hello-world 9.12</title></circle>
<circle cx="642.3" cy="189.1" r="4" fill="#7c8a99" opacity=".82"><title>closures 9.22</title></circle>
<circle cx="642.3" cy="185.5" r="4" fill="#7c8a99" opacity=".82"><title>number-parsing 9.22</title></circle>
<circle cx="693.6" cy="199.9" r="4" fill="#7c8a99" opacity=".82"><title>booleans 9.32</title></circle>
<circle cx="693.6" cy="176.5" r="4" fill="#7c8a99" opacity=".82"><title>constants 9.32</title></circle>
<circle cx="693.6" cy="207.1" r="4" fill="#7c8a99" opacity=".82"><title>custom-exceptions 9.32</title></circle>
<circle cx="693.6" cy="208.0" r="4" fill="#7c8a99" opacity=".82"><title>keyword-only-arguments 9.32</title></circle>
<circle cx="703.9" cy="182.8" r="4" fill="#7c8a99" opacity=".82"><title>decorators 9.34</title></circle>
<circle cx="703.9" cy="200.8" r="4" fill="#7c8a99" opacity=".82"><title>json 9.34</title></circle>
<circle cx="744.9" cy="195.4" r="4" fill="#7c8a99" opacity=".82"><title>numbers 9.42</title></circle>
<circle cx="755.2" cy="182.8" r="4" fill="#7c8a99" opacity=".82"><title>dataclasses 9.44</title></circle>
<circle cx="755.2" cy="172.9" r="4" fill="#7c8a99" opacity=".82"><title>functions 9.44</title></circle>
<circle cx="755.2" cy="187.3" r="4" fill="#7c8a99" opacity=".82"><title>generator-expressions 9.44</title></circle>
<circle cx="755.2" cy="195.4" r="4" fill="#7c8a99" opacity=".82"><title>mutability 9.44</title></circle>
<circle cx="755.2" cy="197.2" r="4" fill="#7c8a99" opacity=".82"><title>string-formatting 9.44</title></circle>
<circle cx="755.2" cy="172.0" r="4" fill="#7c8a99" opacity=".82"><title>values 9.44</title></circle>
<circle cx="755.2" cy="181.0" r="4" fill="#7c8a99" opacity=".82"><title>variables 9.44</title></circle>
<circle cx="765.5" cy="189.1" r="4" fill="#7c8a99" opacity=".82"><title>enums 9.46</title></circle>
<circle cx="765.5" cy="196.3" r="4" fill="#7c8a99" opacity=".82"><title>for-loops 9.46</title></circle>
<circle cx="765.5" cy="186.4" r="4" fill="#7c8a99" opacity=".82"><title>generators 9.46</title></circle>
<circle cx="765.5" cy="207.1" r="4" fill="#7c8a99" opacity=".82"><title>multiple-return-values 9.46</title></circle>
<circle cx="765.5" cy="197.2" r="4" fill="#7c8a99" opacity=".82"><title>slices 9.46</title></circle>
<circle cx="765.5" cy="200.8" r="4" fill="#7c8a99" opacity=".82"><title>while-loops 9.46</title></circle>
<circle cx="806.5" cy="186.4" r="4" fill="#7c8a99" opacity=".82"><title>conditionals 9.54</title></circle>
<circle cx="806.5" cy="194.5" r="4" fill="#7c8a99" opacity=".82"><title>datetime 9.54</title></circle>
<circle cx="816.8" cy="176.5" r="4" fill="#7c8a99" opacity=".82"><title>args-and-kwargs 9.56</title></circle>
<circle cx="816.8" cy="173.8" r="4" fill="#7c8a99" opacity=".82"><title>dicts 9.56</title></circle>
<circle cx="816.8" cy="187.3" r="4" fill="#7c8a99" opacity=".82"><title>equality-and-identity 9.56</title></circle>
<circle cx="816.8" cy="176.5" r="4" fill="#7c8a99" opacity=".82"><title>iterators 9.56</title></circle>
<circle cx="816.8" cy="196.3" r="4" fill="#7c8a99" opacity=".82"><title>lambdas 9.56</title></circle>
<circle cx="816.8" cy="195.4" r="4" fill="#7c8a99" opacity=".82"><title>lists 9.56</title></circle>
<circle cx="816.8" cy="203.5" r="4" fill="#7c8a99" opacity=".82"><title>properties 9.56</title></circle>
<circle cx="816.8" cy="183.7" r="4" fill="#7c8a99" opacity=".82"><title>tuples 9.56</title></circle>
<circle cx="827.1" cy="193.6" r="4" fill="#7c8a99" opacity=".82"><title>context-managers 9.58</title></circle>
<circle cx="868.1" cy="180.1" r="4" fill="#7c8a99" opacity=".82"><title>regular-expressions 9.66</title></circle>
<circle cx="868.1" cy="187.3" r="4" fill="#7c8a99" opacity=".82"><title>unpacking 9.66</title></circle>
<circle cx="878.4" cy="172.0" r="4" fill="#7c8a99" opacity=".82"><title>comprehensions 9.68</title></circle>
<circle cx="878.4" cy="183.7" r="4" fill="#7c8a99" opacity=".82"><title>itertools 9.68</title></circle>
<circle cx="878.4" cy="205.3" r="4" fill="#7c8a99" opacity=".82"><title>sets 9.68</title></circle>
<circle cx="878.4" cy="204.4" r="4" fill="#7c8a99" opacity=".82"><title>sorting 9.68</title></circle>
<circle cx="878.4" cy="208.0" r="4" fill="#7c8a99" opacity=".82"><title>strings 9.68</title></circle>
<circle cx="888.7" cy="205.3" r="4" fill="#7c8a99" opacity=".82"><title>iterating-over-iterables 9.70</title></circle>
<circle cx="888.7" cy="191.8" r="4" fill="#7c8a99" opacity=".82"><title>none 9.70</title></circle>
<circle cx="888.7" cy="177.4" r="4" fill="#7c8a99" opacity=".82"><title>truthiness 9.70</title></circle>
<circle cx="303.5" cy="335.5" r="5" fill="#ff4801" opacity=".82"><title>import-aliases 8.56</title></circle>
<circle cx="447.2" cy="345.4" r="5" fill="#ff4801" opacity=".82"><title>async-iteration-and-context 8.84</title></circle>
<circle cx="472.9" cy="344.5" r="5" fill="#ff4801" opacity=".82"><title>metaclasses 8.89</title></circle>
<circle cx="652.5" cy="340.0" r="5" fill="#ff4801" opacity=".82"><title>break-and-continue 9.24</title></circle>
<circle cx="652.5" cy="331.9" r="5" fill="#ff4801" opacity=".82"><title>exception-groups 9.24</title></circle>
<circle cx="703.9" cy="329.2" r="5" fill="#ff4801" opacity=".82"><title>assignment-expressions 9.34</title></circle>
<circle cx="703.9" cy="329.2" r="5" fill="#ff4801" opacity=".82"><title>exception-chaining 9.34</title></circle>
<circle cx="703.9" cy="346.3" r="5" fill="#ff4801" opacity=".82"><title>inheritance-and-super 9.34</title></circle>
<circle cx="703.9" cy="331.0" r="5" fill="#ff4801" opacity=".82"><title>loop-else 9.34</title></circle>
<circle cx="703.9" cy="322.0" r="5" fill="#ff4801" opacity=".82"><title>positional-only-parameters 9.34</title></circle>
<circle cx="755.2" cy="341.8" r="5" fill="#ff4801" opacity=".82"><title>advanced-match-patterns 9.44</title></circle>
<circle cx="755.2" cy="356.2" r="5" fill="#ff4801" opacity=".82"><title>operators-and-literals 9.44</title></circle>
<circle cx="765.5" cy="351.7" r="5" fill="#ff4801" opacity=".82"><title>assertions 9.46</title></circle>
<circle cx="765.5" cy="350.8" r="5" fill="#ff4801" opacity=".82"><title>comprehension-patterns 9.46</title></circle>
<circle cx="765.5" cy="336.4" r="5" fill="#ff4801" opacity=".82"><title>scope-global-nonlocal 9.46</title></circle>
<circle cx="765.5" cy="350.8" r="5" fill="#ff4801" opacity=".82"><title>yield-from 9.46</title></circle>
<circle cx="878.4" cy="326.5" r="5" fill="#ff4801" opacity=".82"><title>delete-statements 9.68</title></circle>
<text class="small" x="311.5" y="385.0" fill="#521000">import-aliases 8.56</text>
<text class="small" x="455.2" y="400.0" fill="#521000">async-iteration-and-context 8.84</text>
<text class="small" x="480.9" y="415.0" fill="#521000">metaclasses 8.89</text>
<text class="small" x="660.5" y="430.0" fill="#521000">break-and-continue 9.24</text>
<text class="muted small" x="170" y="455">Score</text>
<text class="muted small" x="40" y="520">Takeaway: new examples are slightly lower on average because many cover advanced/edge syntax compactly; none fall below the 8.5 gate under this heuristic.</text>
</svg>